HIERARCHY
ROOT Hips
{
	OFFSET 0.000000 0.000000 0.000000
	CHANNELS 6 Xposition Yposition Zposition Zrotation Yrotation Xrotation 
	JOINT LowerBack
	{
		OFFSET 0.000000 0.000000 0.000000
		CHANNELS 3 Zrotation Yrotation Xrotation
		JOINT Spine
		{
			OFFSET 0.028270 2.035590 -0.193380
			CHANNELS 3 Zrotation Yrotation Xrotation
			JOINT Spine1
			{
				OFFSET 0.056720 2.048850 -0.042750
				CHANNELS 3 Zrotation Yrotation Xrotation
				JOINT Neck
				{
					OFFSET 0.000000 0.000000 0.000000
					CHANNELS 3 Zrotation Yrotation Xrotation
					JOINT Neck1
					{
						OFFSET -0.054170 1.746240 0.172020
						CHANNELS 3 Zrotation Yrotation Xrotation
						JOINT Head
						{
							OFFSET 0.104070 1.761360 -0.123970
							CHANNELS 3 Zrotation Yrotation Xrotation
							End Site
							{
								OFFSET 0.000000 0.000000 0.000000
							}
						}
					}
				}
				JOINT LeftShoulder
				{
					OFFSET 0.000000 0.000000 0.000000
					CHANNELS 3 Zrotation Yrotation Xrotation
					JOINT LeftArm
					{
						OFFSET 3.362410 1.200890 -0.311210
						CHANNELS 3 Zrotation Yrotation Xrotation
						JOINT LeftForeArm
						{
							OFFSET 4.983000 -0.000000 -0.000000
							CHANNELS 3 Zrotation Yrotation Xrotation
							JOINT LeftHand
							{
								OFFSET 3.483560 -0.000000 -0.000000
								CHANNELS 3 Zrotation Yrotation Xrotation
								JOINT LeftFingerBase
								{
									OFFSET 0.000000 0.000000 0.000000
									CHANNELS 3 Zrotation Yrotation Xrotation
									JOINT LeftHandIndex1
									{
										OFFSET 0.715260 -0.000000 -0.000000
										CHANNELS 3 Zrotation Yrotation Xrotation
										End Site
										{
											OFFSET 0.000000 0.000000 0.000000
										}
									}
								}
								JOINT LThumb
								{
									OFFSET 0.000000 0.000000 0.000000
									CHANNELS 3 Zrotation Yrotation Xrotation
									End Site
									{
										OFFSET 0.000000 0.000000 0.000000
									}
								}
							}
						}
					}
				}
				JOINT RightShoulder
				{
					OFFSET 0.000000 0.000000 0.000000
					CHANNELS 3 Zrotation Yrotation Xrotation
					JOINT RightArm
					{
						OFFSET -3.136600 1.374050 -0.404650
						CHANNELS 3 Zrotation Yrotation Xrotation
						JOINT RightForeArm
						{
							OFFSET -5.241900 -0.000000 -0.000000
							CHANNELS 3 Zrotation Yrotation Xrotation
							JOINT RightHand
							{
								OFFSET -3.444170 -0.000000 -0.000000
								CHANNELS 3 Zrotation Yrotation Xrotation
								JOINT RightFingerBase
								{
									OFFSET 0.000000 0.000000 0.000000
									CHANNELS 3 Zrotation Yrotation Xrotation
									JOINT RightHandIndex1
									{
										OFFSET -0.622530 -0.000000 -0.000000
										CHANNELS 3 Zrotation Yrotation Xrotation
										End Site
										{
											OFFSET 0.000000 0.000000 0.000000
										}
									}
								}
								JOINT RThumb
								{
									OFFSET 0.000000 0.000000 0.000000
									CHANNELS 3 Zrotation Yrotation Xrotation
									End Site
									{
										OFFSET 0.000000 0.000000 0.000000
									}
								}
							}
						}
					}
				}
			}
		}
	}
}
}
MOTION
Frames: 15
Frame Time: 0.008333
-7.078477 16.387688 -2.467601 7.101074 76.143607 21.965726 -4.741383 0.641545 0.961917 -1.355785 0.961981 -2.487246 -4.297200 0.885047 1.705842 9.342846 -5.666076 -4.776653 -1.894106 -0.179284 0.689775 0.000000 0.000000 0.000000 -9.113615 12.279359 1.628909 -66.927626 15.829669 12.777068 -4.222003 -24.720512 -0.026139 -12.726042 4.747099 -0.538134 -0.058683 -0.093956 0.000000 0.000000 0.000000 0.000000 0.000000 0.000000 0.000000 8.029846 -1.558101 0.836111 44.368478 26.546237 27.948358 0.620588 77.877867 0.033108 11.864886 8.615389 0.940811 -0.172993 -0.294291 0.000000 0.000000 0.000000 0.000000 0.000000 0.000000 0.000000 
-6.899271 16.387703 -2.459377 8.534056 75.626888 23.287498 -5.196071 0.543832 1.183871 -1.447137 0.892620 -2.464726 -4.340185 0.816363 1.649195 9.490198 -5.726549 -4.762391 -1.924578 -0.181207 0.687638 0.000000 0.000000 0.000000 -9.081772 11.800661 1.682220 -66.984918 14.738082 12.135507 -4.265720 -23.817212 -0.024741 -12.435806 4.859261 -0.536998 -0.062608 -0.087858 0.000000 0.000000 0.000000 0.000000 0.000000 0.000000 0.000000 8.254153 -1.669633 0.830663 45.266505 25.531321 27.998941 0.679930 77.127222 0.032992 11.833013 8.535586 0.928564 -0.165603 -0.287335 0.000000 0.000000 0.000000 0.000000 0.000000 0.000000 0.000000 
-6.725790 16.392880 -2.453484 9.578850 75.044165 24.209299 -5.544141 0.459256 1.441975 -1.518380 0.830425 -2.436099 -4.384924 0.755417 1.586599 9.601152 -5.759306 -4.740928 -1.959253 -0.183464 0.687023 0.000000 0.000000 0.000000 -9.061934 11.306519 1.735180 -67.044296 13.595166 11.468143 -4.303296 -22.990842 -0.023249 -12.147591 4.946743 -0.532760 -0.066141 -0.081247 0.000000 0.000000 0.000000 0.000000 0.000000 0.000000 0.000000 8.459342 -1.753985 0.827334 46.180637 24.526519 28.031286 0.745182 76.273097 0.032744 11.804740 8.468903 0.918117 -0.158315 -0.279970 -0.000000 0.000000 0.000000 0.000000 0.000000 0.000000 0.000000 
-6.557200 16.402902 -2.450344 10.228147 74.387892 24.723934 -5.779610 0.389380 1.727527 -1.568313 0.776710 -2.401403 -4.430924 0.703437 1.525079 9.681985 -5.769962 -4.716008 -1.997852 -0.185984 0.687017 0.000000 0.000000 0.000000 -9.054106 10.830372 1.784267 -67.098982 12.400125 10.805139 -4.333450 -22.266650 -0.021678 -11.866517 4.999807 -0.524919 -0.069205 -0.074264 0.000000 0.000000 0.000000 0.000000 0.000000 0.000000 0.000000 8.656161 -1.817847 0.826910 47.077668 23.561825 28.060457 0.815797 75.317335 0.032336 11.776241 8.418239 0.909269 -0.151163 -0.272194 -0.000000 0.000000 0.000000 0.000000 0.000000 0.000000 0.000000 
-6.392624 16.417436 -2.449964 10.499334 73.656234 24.852810 -5.900570 0.334226 2.028230 -1.596555 0.731494 -2.362418 -4.478019 0.660266 1.467450 9.739295 -5.757858 -4.687235 -2.039566 -0.188721 0.687918 0.000000 0.000000 0.000000 -9.057381 10.388940 1.827143 -67.141361 11.171715 10.166064 -4.355627 -21.679231 -0.020061 -11.598957 5.012960 -0.513376 -0.071770 -0.067101 0.000000 0.000000 0.000000 0.000000 0.000000 0.000000 0.000000 8.848882 -1.861105 0.829204 47.940411 22.645377 28.094402 0.891224 74.265315 0.031762 11.748169 8.381450 0.901918 -0.144192 -0.263953 -0.000000 0.000000 0.000000 0.000000 0.000000 0.000000 0.000000 
-6.231117 16.436138 -2.451993 10.438719 72.853931 24.650195 -5.912197 0.291303 2.329925 -1.604106 0.692668 -2.320956 -4.526288 0.623623 1.417426 9.782313 -5.726037 -4.655694 -2.083457 -0.191602 0.689589 0.000000 0.000000 0.000000 -9.066194 9.999978 1.862061 -67.162106 9.922182 9.573823 -4.370312 -21.255804 -0.018428 -11.351953 4.981834 -0.498331 -0.073885 -0.059926 0.000000 0.000000 0.000000 0.000000 0.000000 0.000000 0.000000 9.043732 -1.888052 0.833007 48.758512 21.783136 28.138915 0.970892 73.123229 0.031027 11.719344 8.354475 0.895564 -0.137383 -0.255204 -0.000000 0.000000 0.000000 0.000000 0.000000 0.000000 0.000000 
-6.071854 16.458775 -2.455655 10.104449 71.991421 24.185645 -5.822649 0.257091 2.617350 -1.592599 0.657197 -2.279738 -4.576253 0.590281 1.375608 9.820017 -5.675724 -4.619823 -2.128498 -0.194589 0.692667 0.000000 0.000000 0.000000 -9.073140 9.664772 1.888203 -67.150727 8.677044 9.045491 -4.378329 -21.027299 -0.016817 -11.131083 4.906341 -0.480383 -0.075628 -0.052927 0.000000 0.000000 0.000000 0.000000 0.000000 0.000000 0.000000 9.243676 -1.901123 0.836890 49.531887 20.967223 28.192502 1.054188 71.900384 0.030149 11.689499 8.331132 0.889406 -0.130703 -0.245926 -0.000000 0.000000 0.000000 0.000000 0.000000 0.000000 0.000000 
-5.914169 16.485124 -2.459826 9.569963 71.085069 23.544091 -5.645968 0.226203 2.876949 -1.564749 0.620416 -2.240912 -4.628525 0.555447 1.343128 9.861943 -5.611837 -4.579732 -2.173734 -0.197626 0.697284 0.000000 0.000000 0.000000 -9.067041 9.384023 1.905548 -67.096601 7.453920 8.597962 -4.381266 -21.012445 -0.015256 -10.941272 4.788348 -0.460134 -0.077130 -0.046235 0.000000 0.000000 0.000000 0.000000 0.000000 0.000000 0.000000 9.452897 -1.906949 0.838879 50.266118 20.189735 28.249637 1.140462 70.606731 0.029153 11.657292 8.305295 0.882845 -0.124096 -0.236146 -0.000000 0.000000 0.000000 0.000000 0.000000 0.000000 0.000000 
-5.757708 16.514937 -2.463170 8.911458 70.156165 22.811148 -5.399996 0.192878 3.098056 -1.523998 0.577373 -2.206905 -4.683914 0.514084 1.317528 9.915809 -5.539388 -4.532753 -2.218557 -0.200725 0.704349 0.000000 0.000000 0.000000 -9.036064 9.135951 1.914910 -66.989022 6.288457 8.228412 -4.380668 -21.234017 -0.013779 -10.787140 4.634100 -0.438384 -0.078514 -0.040001 0.000000 0.000000 0.000000 0.000000 0.000000 0.000000 0.000000 9.673939 -1.912491 0.838313 50.971786 19.437380 28.300613 1.229188 69.253299 0.028076 11.620216 8.271671 0.874980 -0.117465 -0.225949 -0.000000 0.000000 0.000000 0.000000 0.000000 0.000000 0.000000 
-5.602342 16.548027 -2.464245 8.203559 69.228080 22.067739 -5.106852 0.150273 3.275211 -1.474500 0.522190 -2.177581 -4.742838 0.460382 1.302597 9.989421 -5.466148 -4.483762 -2.262129 -0.203758 0.712504 0.000000 0.000000 0.000000 -8.964407 8.936714 1.917959 -66.815374 5.159122 7.970368 -4.378927 -21.672222 -0.012372 -10.667173 4.445161 -0.415232 -0.079966 -0.034160 0.000000 0.000000 0.000000 0.000000 0.000000 0.000000 0.000000 9.911103 -1.926887 0.831326 51.660465 18.701450 28.329096 1.319114 67.856046 0.026940 11.579692 8.226345 0.865814 -0.110889 -0.215455 0.000000 0.000000 0.000000 0.000000 0.000000 0.000000 0.000000 
-5.448258 16.584183 -2.461734 7.511275 68.325491 21.380106 -4.788481 0.092713 3.407286 -1.420382 0.450102 -2.153690 -4.805866 0.389645 1.295405 10.086659 -5.395905 -4.431751 -2.304276 -0.206740 0.722061 0.000000 0.000000 0.000000 -8.841022 8.765485 1.917246 -66.564622 4.082918 7.818023 -4.377535 -22.322857 -0.011045 -10.580689 4.229710 -0.391377 -0.081606 -0.028733 0.000000 0.000000 0.000000 0.000000 0.000000 0.000000 0.000000 10.165412 -1.954989 0.817213 52.344640 17.963705 28.314595 1.409236 66.432491 0.025785 11.537579 8.166360 0.854944 -0.104405 -0.204821 0.000000 0.000000 0.000000 0.000000 0.000000 0.000000 0.000000 
-5.295899 16.623151 -2.454543 6.891353 67.471549 20.799664 -4.467132 0.015504 3.498330 -1.365773 0.357385 -2.135681 -4.873118 0.298237 1.290218 10.207809 -5.340434 -4.374178 -2.345404 -0.209751 0.733780 0.000000 0.000000 0.000000 -8.658093 8.573000 1.914994 -66.227348 3.105282 7.733330 -4.376305 -23.193260 -0.009818 -10.527382 4.000738 -0.367821 -0.083432 -0.023826 0.000000 0.000000 0.000000 0.000000 0.000000 0.000000 0.000000 10.438342 -2.010602 0.799099 53.032902 17.221249 28.248738 1.499362 64.994243 0.024653 11.488522 8.093290 0.842373 -0.097865 -0.194270 0.000000 0.000000 0.000000 0.000000 0.000000 0.000000 0.000000 
-5.145737 16.664689 -2.441978 6.380894 66.684872 20.357314 -4.160441 -0.085343 3.556385 -1.313866 0.240916 -2.120887 -4.944465 0.183258 1.291471 10.353100 -5.300819 -4.318992 -2.385384 -0.212659 0.745256 0.000000 0.000000 0.000000 -8.410198 8.390733 1.914681 -65.791200 2.168297 7.747662 -4.376996 -24.222625 -0.008640 -10.499195 3.759196 -0.344263 -0.085583 -0.019190 0.000000 0.000000 0.000000 0.000000 0.000000 0.000000 0.000000 10.731068 -2.093630 0.773245 53.728695 16.461576 28.105317 1.587382 63.567684 0.023551 11.442692 8.006998 0.828699 -0.091598 -0.183946 0.000000 0.000000 0.000000 0.000000 0.000000 0.000000 0.000000 
-4.998400 16.708494 -2.423777 6.005100 65.978895 20.066391 -3.881205 -0.211133 3.592203 -1.266957 0.100121 -2.108856 -5.019308 0.044214 1.292507 10.516883 -5.288620 -4.263827 -2.425086 -0.215575 0.757185 0.000000 0.000000 0.000000 -8.099712 8.163369 1.918381 -65.249524 1.320584 7.802831 -4.377454 -25.412055 -0.007534 -10.494689 3.518873 -0.321704 -0.087923 -0.014932 0.000000 0.000000 0.000000 0.000000 0.000000 0.000000 0.000000 11.042453 -2.216787 0.745335 54.429097 15.690832 27.885828 1.673393 62.163252 0.022521 11.394242 7.913175 0.814322 -0.085443 -0.174056 0.000000 0.000000 0.000000 0.000000 0.000000 0.000000 0.000000 
-4.854319 16.754212 -2.400144 5.769815 65.359648 19.922309 -3.634065 -0.361626 3.617663 -1.225783 -0.064311 -2.097371 -5.096826 -0.118078 1.293551 10.692852 -5.306357 -4.212970 -2.464830 -0.218459 0.768283 0.000000 0.000000 0.000000 -7.733463 7.892682 1.928639 -64.595741 0.542590 7.887412 -4.376836 -26.719357 -0.006476 -10.507925 3.284488 -0.300144 -0.090412 -0.010935 0.000000 0.000000 0.000000 0.000000 0.000000 0.000000 0.000000 11.369337 -2.381133 0.716302 55.127212 14.908654 27.583528 1.756252 60.800467 0.021564 11.348019 7.815505 0.799946 -0.079556 -0.164722 0.000000 0.000000 0.000000 0.000000 0.000000 0.000000 0.000000 
